<?xml version="1.0" encoding="utf-8"?>
<!-- Generator: Adobe Illustrator 25.4.1, SVG Export Plug-In . SVG Version: 6.00 Build 0)  -->
<svg version="1.1" id="Layer_1" xmlns="http://www.w3.org/2000/svg" xmlns:xlink="http://www.w3.org/1999/xlink" x="0px" y="0px"
	 viewBox="0 0 348 104" style="enable-background:new 0 0 348 104;" xml:space="preserve">
<style type="text/css">
	.st0{fill:#898B8D;}
	.st1{fill:#696A6B;}
	.st2{fill:#473121;}
</style>
<g>
	<g>
		<polygon class="st1" points="130.2,21.4 130.2,8.6 133.3,8.6 133.3,18.9 143.2,18.9 143.2,21.4 		"/>
		<path class="st1" d="M158.9,10.3c-0.8-0.7-1.8-1.2-2.9-1.6c-1.1-0.4-2.3-0.6-3.6-0.6s-2.5,0.2-3.6,0.6s-2.1,0.9-2.9,1.6
			c-0.7,0.6-1.3,1.3-1.7,2.1c-0.4,0.8-0.6,1.6-0.6,2.6c0,0.9,0.2,1.8,0.5,2.6c0.4,0.8,0.9,1.5,1.6,2.1c0.8,0.7,1.8,1.2,2.9,1.6
			c1.1,0.4,2.3,0.6,3.6,0.6s2.5-0.2,3.6-0.6s2.1-0.9,2.9-1.6c1.5-1.2,2.2-2.8,2.2-4.7C161.1,13.1,160.4,11.5,158.9,10.3z
			 M157.5,16.7c-0.3,0.5-0.6,1-1.1,1.4s-1.1,0.7-1.7,0.9c-0.7,0.2-1.4,0.3-2.3,0.3c-0.8,0-1.6-0.1-2.3-0.3c-0.7-0.2-1.2-0.5-1.7-0.9
			s-0.8-0.8-1.1-1.4c-0.2-0.5-0.4-1.1-0.4-1.8c0-0.6,0.1-1.2,0.4-1.7c0.3-0.5,0.6-1,1.1-1.4s1.1-0.7,1.7-0.9
			c0.7-0.2,1.4-0.3,2.3-0.3c0.8,0,1.6,0.1,2.3,0.3s1.3,0.5,1.7,0.9c0.5,0.4,0.8,0.8,1.1,1.4c0.3,0.5,0.4,1.1,0.4,1.7
			C157.9,15.6,157.8,16.2,157.5,16.7z"/>
		<path class="st1" d="M179.5,12.4c-0.4-0.8-0.9-1.5-1.5-2.1c-0.7-0.6-1.5-1-2.4-1.3c-1-0.3-2-0.5-3.2-0.5h-8.6v12.8h9
			c1,0,1.9-0.1,2.8-0.4c0.9-0.3,1.6-0.7,2.3-1.2c1.5-1.2,2.3-2.8,2.3-4.6C180.1,14.1,179.9,13.2,179.5,12.4z M176,17.3
			c-0.4,0.5-0.9,0.9-1.5,1.2c-0.6,0.3-1.3,0.4-1.9,0.4h-5.7V11h5.7c0.6,0,1.2,0.1,1.7,0.3s1,0.5,1.4,0.8c0.4,0.4,0.7,0.8,0.9,1.3
			s0.3,1,0.3,1.6C176.8,15.9,176.5,16.6,176,17.3z"/>
		<polygon class="st1" points="195.3,21.4 195.3,15.9 186,15.9 186,21.4 182.9,21.4 182.9,8.6 186,8.6 186,13.3 195.3,13.3 
			195.3,8.6 198.4,8.6 198.4,21.4 		"/>
		<path class="st1" d="M211,8.6h-3.8l-6.8,12.8h3.1l1.5-2.8h8.2l1.5,2.8h3.1L211,8.6z M206.2,16.2l2.8-5.3l2.8,5.3H206.2z"/>
	</g>
	<g>
		<g>
			<path class="st2" d="M67.5,48.3c-1.8-0.8-4.1-1.3-6.6-1.5s-5.4-0.4-8.6-0.5C50,46.2,48,46,46.2,45.8c-1.7-0.2-3.1-0.6-4.3-1
				c-1.1-0.4-1.9-1-2.5-1.7c-0.5-0.7-0.8-1.6-0.8-2.7c0-2.1,1.1-3.7,3.4-4.9s5.8-1.8,10.3-1.8c2.8,0,5.4,0.3,7.9,0.9
				c2.4,0.6,4.9,1.5,7.2,2.8l0.2,0.1l2.8-3l-0.3-0.2c-2.2-1.5-4.8-2.6-7.8-3.2c-3-0.7-6.4-1-10.2-1c-5.8,0-10.3,1-13.4,2.9
				c-3.1,1.9-4.7,4.7-4.7,8.1c0,1.9,0.5,3.5,1.4,4.7c0.9,1.3,2.3,2.2,4.2,2.9c1.7,0.7,3.8,1.1,6.1,1.3c2.3,0.2,5.1,0.3,8.1,0.5
				c2.5,0.1,4.7,0.3,6.5,0.6c1.8,0.3,3.4,0.7,4.6,1.2s2,1.2,2.6,2s0.8,1.8,0.8,3.1c0,2.5-1.3,4.4-3.8,5.9c-2.6,1.5-6.5,2.2-11.5,2.2
				c-3.2,0-6.2-0.4-9-1.2c-2.8-0.8-5.6-2.1-8.3-3.8l-0.3-0.2l-2.3,3.4l0.3,0.2c2.6,1.8,5.6,3.2,9,4.1s7.2,1.4,11.4,1.4
				c6.2,0,11-1.1,14.3-3.2s5-5.2,5-9C73,52.8,71.2,49.9,67.5,48.3L67.5,48.3z"/>
			<polygon class="st2" points="84.5,34.6 102,34.6 102,68.1 106,68.1 106,34.6 123.5,34.6 123.5,30.7 84.5,30.7 			"/>
			<polygon class="st2" points="138.9,50.3 160.4,50.3 160.4,46.4 138.9,46.4 138.9,34.6 169.8,34.6 169.8,30.7 134.9,30.7 
				134.9,68.1 171.2,68.1 171.2,64.2 138.9,64.2 			"/>
			<polygon class="st2" points="186.7,30.7 182.7,30.7 182.7,68.1 215,68.1 215,64.2 186.7,64.2 			"/>
			<polygon class="st2" points="230.4,30.7 226.4,30.7 226.4,68.1 258.8,68.1 258.8,64.2 230.4,64.2 			"/>
			<path class="st2" d="M295.2,30.7H290l-19.8,37.4h4.6l5.1-9.5h25.4l5,9.5h4.6L295.2,30.7z M281.9,54.7l10.7-20l10.6,20H281.9z"/>
		</g>
	</g>
	<g>
		<path class="st1" d="M84.2,78.5v13.9h-2.3v-9.5l-4.2,9.5h-1.6l-4.2-9.5v9.5h-2.3V78.5H72l4.9,10.9l4.8-10.9H84.2z"/>
		<path class="st1" d="M97,89.5h-5.8l-1,2.8h-2.4l5-13.9h2.6l5,13.9H98L97,89.5z M96.4,87.7l-2.3-6.4l-2.3,6.4H96.4z"/>
		<path class="st1" d="M111.7,78.5v10c0,1.2-0.4,2.2-1.1,2.9c-0.8,0.7-1.7,1.1-3,1.1c-1.2,0-2.2-0.4-3-1.1c-0.8-0.7-1.1-1.7-1.1-2.9
			h2.3c0,0.6,0.2,1.1,0.5,1.5c0.3,0.4,0.7,0.5,1.3,0.5c0.6,0,1-0.2,1.3-0.5c0.3-0.4,0.5-0.8,0.5-1.4v-10H111.7z"/>
		<path class="st1" d="M119.2,78.5v13.9h-2.3V78.5H119.2z"/>
		<path class="st1" d="M141.7,78.5l-4.1,13.9H135l-2.9-10.5L129,92.3l-2.6,0l-3.9-13.9h2.4l2.9,11.3l3.1-11.3h2.6l2.9,11.2l2.9-11.2
			H141.7z"/>
		<path class="st1" d="M153.5,89.5h-5.8l-1,2.8h-2.4l5-13.9h2.6l5,13.9h-2.4L153.5,89.5z M152.8,87.7l-2.3-6.4l-2.3,6.4H152.8z"/>
		<path class="st1" d="M168.9,79.3c1.1,0.6,2,1.4,2.6,2.4c0.6,1.1,0.9,2.3,0.9,3.7c0,1.4-0.3,2.6-0.9,3.7c-0.6,1-1.5,1.8-2.6,2.4
			c-1.1,0.6-2.4,0.8-3.9,0.8h-4.5V78.5h4.5C166.5,78.5,167.8,78.8,168.9,79.3z M168.8,89.2c0.9-0.9,1.3-2.1,1.3-3.7
			c0-1.6-0.4-2.9-1.3-3.8c-0.9-0.9-2.1-1.4-3.7-1.4h-2.3v10.1h2.3C166.7,90.5,167.9,90,168.8,89.2z"/>
		<path class="st1" d="M184.6,89.5h-5.8l-1,2.8h-2.4l5-13.9h2.6l5,13.9h-2.4L184.6,89.5z M183.9,87.7l-2.3-6.4l-2.3,6.4H183.9z"/>
		<path class="st1" d="M200.8,89.6l-2.4,5.5H197l1.4-5.5H200.8z"/>
		<path class="st1" d="M220,78.5v1.9h-3.7v12h-2.3v-12h-3.7v-1.9H220z"/>
		<path class="st1" d="M234.9,78.5v13.9h-2.3v-6.1h-6.5v6.1h-2.3V78.5h2.3v5.9h6.5v-5.9H234.9z"/>
		<path class="st1" d="M247.8,89.5H242l-1,2.8h-2.4l5-13.9h2.6l5,13.9h-2.4L247.8,89.5z M247.2,87.7l-2.3-6.4l-2.3,6.4H247.2z"/>
		<path class="st1" d="M266.3,92.3H264L257.1,82v10.3h-2.3V78.5h2.3l6.8,10.3V78.5h2.3V92.3z"/>
		<path class="st1" d="M273,80.3v4.1h4.8v1.9H273v4.2h5.4v1.9h-7.7V78.5h7.7v1.9H273z"/>
	</g>
</g>
</svg>
